# xmcd CD database file
#
# Track frame offsets:
#	150
#	14732
#	31060
#	47165
#	61937
#	76105
#	88037
#	102732
#	119082
#	134117
#	149417
#	164435
#	178270
#	191895
#	223872
#	243465
#
# Disc length: 3487 seconds
#
# Revision: 0
# Processed by: cddbd v1.5.1PL0 Copyright (c) Steve Scherf et al.
# Submitted via: CDex 1.51
#
DISCID=fb0d9d10
DTITLE=ROY ELDRDGE - JAZZ-BLUES
DYEAR=1995
DGENRE=Jazz
TTITLE0=WRAP YOUR TROUBLES IN DREAMS
TTITLE1=GOLIATH BOUNCE
TTITLE2=IF I HAD YOU
TTITLE3=NUTS
TTITLE4=SOMEONE TO WATCH OVER ME
TTITLE5=LITTLE JAZZ
TTITLE6=ROCKIN'CHAIR
TTITLE7=DALE'S WAIL
TTITLE8=WILLOW WEEP FOR ME
TTITLE9=FEEELING A DRAFT
TTITLE10=I CAN'T GET SATARTED
TTITLE11=WHEN YOUR LOVER HAS GONE
TTITLE12=WHEN IT'S SLEEPY TIME DOWN SOUTH
TTITLE13=I ONLY HAVE EYES FOR YOUÇSTORMY WEATHER
TTITLE14=ATORMY WEATHER
TTITLE15=B LUE MOON
EXTD=YEAR: 1995
EXTT0=
EXTT1=
EXTT2=
EXTT3=
EXTT4=
EXTT5=
EXTT6=
EXTT7=
EXTT8=
EXTT9=
EXTT10=
EXTT11=
EXTT12=
EXTT13=
EXTT14=
EXTT15=
PLAYORDER=
